<mxfile host="app.diagrams.net" modified="2022-09-07T01:51:15.447Z" agent="5.0 (Windows NT 10.0; Win64; x64) AppleWebKit/537.36 (KHTML, like Gecko) Chrome/104.0.5112.102 Safari/537.36 OPR/90.0.4480.54" etag="EdXeXlqI3oNCYboVDVx0" version="20.2.8" type="github">
  <diagram id="C5RBs43oDa-KdzZeNtuy" name="Page-1">
    <mxGraphModel dx="1484" dy="876" grid="1" gridSize="10" guides="1" tooltips="1" connect="1" arrows="1" fold="1" page="1" pageScale="1" pageWidth="827" pageHeight="1169" math="0" shadow="0">
      <root>
        <mxCell id="WIyWlLk6GJQsqaUBKTNV-0" />
        <mxCell id="WIyWlLk6GJQsqaUBKTNV-1" parent="WIyWlLk6GJQsqaUBKTNV-0" />
        <mxCell id="WIyWlLk6GJQsqaUBKTNV-3" value="Jogar Truco" style="rounded=1;whiteSpace=wrap;html=1;fontSize=12;glass=0;strokeWidth=1;shadow=0;fillColor=#dae8fc;strokeColor=#6c8ebf;" parent="WIyWlLk6GJQsqaUBKTNV-1" vertex="1">
          <mxGeometry x="160" y="80" width="120" height="40" as="geometry" />
        </mxCell>
        <mxCell id="9xWWHG499uekbKJID4pz-0" value="&lt;font style=&quot;font-size: 10px;&quot;&gt;Adição aleatória de cartas na mão dos jogadores &lt;br&gt;(pc e user)&lt;/font&gt;" style="rounded=0;whiteSpace=wrap;html=1;" parent="WIyWlLk6GJQsqaUBKTNV-1" vertex="1">
          <mxGeometry x="160" y="150" width="120" height="50" as="geometry" />
        </mxCell>
        <mxCell id="9xWWHG499uekbKJID4pz-1" value="" style="rounded=0;html=1;jettySize=auto;orthogonalLoop=1;fontSize=11;endArrow=none;endFill=0;endSize=8;strokeWidth=1;shadow=0;labelBackgroundColor=none;edgeStyle=orthogonalEdgeStyle;" parent="WIyWlLk6GJQsqaUBKTNV-1" source="WIyWlLk6GJQsqaUBKTNV-3" target="9xWWHG499uekbKJID4pz-0" edge="1">
          <mxGeometry relative="1" as="geometry">
            <mxPoint x="220.0000000000001" y="120" as="sourcePoint" />
            <mxPoint x="220.0000000000001" y="210" as="targetPoint" />
          </mxGeometry>
        </mxCell>
        <mxCell id="9xWWHG499uekbKJID4pz-2" value="&lt;font style=&quot;font-size: 10px;&quot;&gt;Avaliação das cartas do pc&lt;/font&gt;" style="rounded=0;whiteSpace=wrap;html=1;" parent="WIyWlLk6GJQsqaUBKTNV-1" vertex="1">
          <mxGeometry x="160" y="220" width="120" height="40" as="geometry" />
        </mxCell>
        <mxCell id="9xWWHG499uekbKJID4pz-9" value="" style="endArrow=none;html=1;rounded=0;entryX=0.5;entryY=1;entryDx=0;entryDy=0;exitX=0.5;exitY=0;exitDx=0;exitDy=0;" parent="WIyWlLk6GJQsqaUBKTNV-1" source="9xWWHG499uekbKJID4pz-2" target="9xWWHG499uekbKJID4pz-0" edge="1">
          <mxGeometry width="50" height="50" relative="1" as="geometry">
            <mxPoint x="210" y="240" as="sourcePoint" />
            <mxPoint x="260" y="190" as="targetPoint" />
          </mxGeometry>
        </mxCell>
        <mxCell id="9xWWHG499uekbKJID4pz-17" value="" style="edgeStyle=orthogonalEdgeStyle;rounded=0;orthogonalLoop=1;jettySize=auto;html=1;fontSize=8;" parent="WIyWlLk6GJQsqaUBKTNV-1" source="9xWWHG499uekbKJID4pz-10" target="9xWWHG499uekbKJID4pz-16" edge="1">
          <mxGeometry relative="1" as="geometry" />
        </mxCell>
        <mxCell id="9xWWHG499uekbKJID4pz-20" value="não" style="edgeLabel;html=1;align=center;verticalAlign=middle;resizable=0;points=[];fontSize=10;fontStyle=1" parent="9xWWHG499uekbKJID4pz-17" vertex="1" connectable="0">
          <mxGeometry x="-0.1667" y="2" relative="1" as="geometry">
            <mxPoint y="-8" as="offset" />
          </mxGeometry>
        </mxCell>
        <mxCell id="9xWWHG499uekbKJID4pz-22" value="" style="edgeStyle=orthogonalEdgeStyle;rounded=0;orthogonalLoop=1;jettySize=auto;html=1;fontSize=10;" parent="WIyWlLk6GJQsqaUBKTNV-1" source="9xWWHG499uekbKJID4pz-10" edge="1">
          <mxGeometry relative="1" as="geometry">
            <mxPoint x="120" y="310" as="targetPoint" />
          </mxGeometry>
        </mxCell>
        <mxCell id="9xWWHG499uekbKJID4pz-27" value="sim" style="edgeLabel;html=1;align=center;verticalAlign=middle;resizable=0;points=[];fontSize=10;fontStyle=1" parent="9xWWHG499uekbKJID4pz-22" vertex="1" connectable="0">
          <mxGeometry x="-0.1404" y="-2" relative="1" as="geometry">
            <mxPoint y="-8" as="offset" />
          </mxGeometry>
        </mxCell>
        <mxCell id="9xWWHG499uekbKJID4pz-10" value="&lt;font style=&quot;font-size: 8px;&quot;&gt;Cartas &lt;br&gt;necessárias &lt;br&gt;para usar uma das estratégias&amp;nbsp;&lt;/font&gt;" style="rhombus;whiteSpace=wrap;html=1;fillColor=#f5f5f5;fontColor=#333333;strokeColor=#666666;" parent="WIyWlLk6GJQsqaUBKTNV-1" vertex="1">
          <mxGeometry x="180" y="270" width="80" height="80" as="geometry" />
        </mxCell>
        <mxCell id="9xWWHG499uekbKJID4pz-11" value="" style="endArrow=none;html=1;rounded=0;entryX=0.5;entryY=1;entryDx=0;entryDy=0;exitX=0.5;exitY=0;exitDx=0;exitDy=0;" parent="WIyWlLk6GJQsqaUBKTNV-1" source="9xWWHG499uekbKJID4pz-10" target="9xWWHG499uekbKJID4pz-2" edge="1">
          <mxGeometry width="50" height="50" relative="1" as="geometry">
            <mxPoint x="210" y="300" as="sourcePoint" />
            <mxPoint x="260" y="250" as="targetPoint" />
          </mxGeometry>
        </mxCell>
        <mxCell id="9xWWHG499uekbKJID4pz-26" style="edgeStyle=orthogonalEdgeStyle;rounded=0;orthogonalLoop=1;jettySize=auto;html=1;exitX=0.5;exitY=1;exitDx=0;exitDy=0;entryX=1;entryY=0.5;entryDx=0;entryDy=0;fontSize=10;" parent="WIyWlLk6GJQsqaUBKTNV-1" source="9xWWHG499uekbKJID4pz-16" target="9xWWHG499uekbKJID4pz-29" edge="1">
          <mxGeometry relative="1" as="geometry">
            <mxPoint x="280" y="390" as="targetPoint" />
          </mxGeometry>
        </mxCell>
        <mxCell id="9xWWHG499uekbKJID4pz-16" value="&lt;font style=&quot;font-size: 10px;&quot;&gt;Pc sem estratégia de jogo&lt;br&gt;&lt;/font&gt;" style="whiteSpace=wrap;html=1;" parent="WIyWlLk6GJQsqaUBKTNV-1" vertex="1">
          <mxGeometry x="320" y="290" width="80" height="40" as="geometry" />
        </mxCell>
        <mxCell id="9xWWHG499uekbKJID4pz-25" style="edgeStyle=orthogonalEdgeStyle;rounded=0;orthogonalLoop=1;jettySize=auto;html=1;exitX=0.5;exitY=1;exitDx=0;exitDy=0;entryX=0;entryY=0.5;entryDx=0;entryDy=0;fontSize=10;" parent="WIyWlLk6GJQsqaUBKTNV-1" source="9xWWHG499uekbKJID4pz-23" target="9xWWHG499uekbKJID4pz-29" edge="1">
          <mxGeometry relative="1" as="geometry">
            <mxPoint x="160" y="390" as="targetPoint" />
          </mxGeometry>
        </mxCell>
        <mxCell id="9xWWHG499uekbKJID4pz-23" value="&lt;font style=&quot;font-size: 10px;&quot;&gt;Pc usa estratégia de jogo&lt;br&gt;&lt;/font&gt;" style="whiteSpace=wrap;html=1;" parent="WIyWlLk6GJQsqaUBKTNV-1" vertex="1">
          <mxGeometry x="40" y="290" width="80" height="40" as="geometry" />
        </mxCell>
        <mxCell id="9xWWHG499uekbKJID4pz-29" value="Jogo começa" style="rounded=1;whiteSpace=wrap;html=1;fontSize=10;fillColor=#dae8fc;strokeColor=#6c8ebf;" parent="WIyWlLk6GJQsqaUBKTNV-1" vertex="1">
          <mxGeometry x="160" y="370" width="120" height="40" as="geometry" />
        </mxCell>
        <mxCell id="9xWWHG499uekbKJID4pz-31" value="Comparação de cartas" style="rounded=0;whiteSpace=wrap;html=1;fontSize=10;" parent="WIyWlLk6GJQsqaUBKTNV-1" vertex="1">
          <mxGeometry x="160" y="480" width="120" height="40" as="geometry" />
        </mxCell>
        <mxCell id="9xWWHG499uekbKJID4pz-41" value="" style="edgeStyle=orthogonalEdgeStyle;rounded=0;orthogonalLoop=1;jettySize=auto;html=1;fontSize=10;" parent="WIyWlLk6GJQsqaUBKTNV-1" source="9xWWHG499uekbKJID4pz-37" target="9xWWHG499uekbKJID4pz-31" edge="1">
          <mxGeometry relative="1" as="geometry" />
        </mxCell>
        <mxCell id="9xWWHG499uekbKJID4pz-37" value="Round 1" style="rounded=0;whiteSpace=wrap;html=1;fontSize=10;fillColor=#f5f5f5;fontColor=#333333;strokeColor=#666666;" parent="WIyWlLk6GJQsqaUBKTNV-1" vertex="1">
          <mxGeometry x="180" y="430" width="80" height="30" as="geometry" />
        </mxCell>
        <mxCell id="9xWWHG499uekbKJID4pz-39" value="" style="endArrow=none;html=1;rounded=0;fontSize=10;exitX=0.5;exitY=0;exitDx=0;exitDy=0;" parent="WIyWlLk6GJQsqaUBKTNV-1" source="9xWWHG499uekbKJID4pz-37" edge="1">
          <mxGeometry width="50" height="50" relative="1" as="geometry">
            <mxPoint x="170" y="460" as="sourcePoint" />
            <mxPoint x="220" y="410" as="targetPoint" />
          </mxGeometry>
        </mxCell>
        <mxCell id="9xWWHG499uekbKJID4pz-45" value="Perdeu" style="rounded=0;whiteSpace=wrap;html=1;fontSize=10;" parent="WIyWlLk6GJQsqaUBKTNV-1" vertex="1">
          <mxGeometry x="250" y="530" width="60" height="30" as="geometry" />
        </mxCell>
        <mxCell id="9xWWHG499uekbKJID4pz-52" value="Venceu" style="rounded=0;whiteSpace=wrap;html=1;fontSize=10;" parent="WIyWlLk6GJQsqaUBKTNV-1" vertex="1">
          <mxGeometry x="130" y="530" width="60" height="30" as="geometry" />
        </mxCell>
        <mxCell id="9xWWHG499uekbKJID4pz-58" value="" style="endArrow=classic;html=1;rounded=0;fontSize=10;" parent="WIyWlLk6GJQsqaUBKTNV-1" edge="1">
          <mxGeometry width="50" height="50" relative="1" as="geometry">
            <mxPoint x="220" y="520" as="sourcePoint" />
            <mxPoint x="220" y="550" as="targetPoint" />
          </mxGeometry>
        </mxCell>
        <mxCell id="9xWWHG499uekbKJID4pz-59" value="" style="endArrow=none;html=1;rounded=0;fontSize=10;" parent="WIyWlLk6GJQsqaUBKTNV-1" edge="1">
          <mxGeometry width="50" height="50" relative="1" as="geometry">
            <mxPoint x="190" y="550" as="sourcePoint" />
            <mxPoint x="220" y="550" as="targetPoint" />
          </mxGeometry>
        </mxCell>
        <mxCell id="9xWWHG499uekbKJID4pz-60" value="" style="endArrow=none;html=1;rounded=0;fontSize=10;" parent="WIyWlLk6GJQsqaUBKTNV-1" edge="1">
          <mxGeometry width="50" height="50" relative="1" as="geometry">
            <mxPoint x="220" y="550" as="sourcePoint" />
            <mxPoint x="250" y="550" as="targetPoint" />
          </mxGeometry>
        </mxCell>
        <mxCell id="9xWWHG499uekbKJID4pz-72" value="" style="edgeStyle=orthogonalEdgeStyle;rounded=0;orthogonalLoop=1;jettySize=auto;html=1;fontSize=10;" parent="WIyWlLk6GJQsqaUBKTNV-1" source="9xWWHG499uekbKJID4pz-61" target="9xWWHG499uekbKJID4pz-71" edge="1">
          <mxGeometry relative="1" as="geometry" />
        </mxCell>
        <mxCell id="9xWWHG499uekbKJID4pz-61" value="Round 2" style="rounded=0;whiteSpace=wrap;html=1;fontSize=10;fillColor=#f5f5f5;fontColor=#333333;strokeColor=#666666;" parent="WIyWlLk6GJQsqaUBKTNV-1" vertex="1">
          <mxGeometry x="180" y="600" width="80" height="30" as="geometry" />
        </mxCell>
        <mxCell id="9xWWHG499uekbKJID4pz-66" value="" style="endArrow=none;html=1;rounded=0;fontSize=10;exitX=0.5;exitY=1;exitDx=0;exitDy=0;" parent="WIyWlLk6GJQsqaUBKTNV-1" source="9xWWHG499uekbKJID4pz-52" edge="1">
          <mxGeometry width="50" height="50" relative="1" as="geometry">
            <mxPoint x="160" y="549" as="sourcePoint" />
            <mxPoint x="200" y="600" as="targetPoint" />
          </mxGeometry>
        </mxCell>
        <mxCell id="9xWWHG499uekbKJID4pz-68" value="" style="endArrow=none;html=1;rounded=0;fontSize=10;entryX=0.5;entryY=1;entryDx=0;entryDy=0;" parent="WIyWlLk6GJQsqaUBKTNV-1" target="9xWWHG499uekbKJID4pz-45" edge="1">
          <mxGeometry width="50" height="50" relative="1" as="geometry">
            <mxPoint x="240" y="600" as="sourcePoint" />
            <mxPoint x="270" y="570" as="targetPoint" />
          </mxGeometry>
        </mxCell>
        <mxCell id="9xWWHG499uekbKJID4pz-74" value="" style="edgeStyle=orthogonalEdgeStyle;rounded=0;orthogonalLoop=1;jettySize=auto;html=1;fontSize=10;" parent="WIyWlLk6GJQsqaUBKTNV-1" source="9xWWHG499uekbKJID4pz-71" edge="1">
          <mxGeometry relative="1" as="geometry">
            <mxPoint x="220" y="740" as="targetPoint" />
            <Array as="points">
              <mxPoint x="220" y="730" />
              <mxPoint x="220" y="730" />
            </Array>
          </mxGeometry>
        </mxCell>
        <mxCell id="9xWWHG499uekbKJID4pz-71" value="Comparação de cartas" style="rounded=0;whiteSpace=wrap;html=1;fontSize=10;" parent="WIyWlLk6GJQsqaUBKTNV-1" vertex="1">
          <mxGeometry x="160" y="660" width="120" height="40" as="geometry" />
        </mxCell>
        <mxCell id="9xWWHG499uekbKJID4pz-75" value="" style="endArrow=none;html=1;rounded=0;fontSize=10;" parent="WIyWlLk6GJQsqaUBKTNV-1" edge="1">
          <mxGeometry width="50" height="50" relative="1" as="geometry">
            <mxPoint x="190" y="740" as="sourcePoint" />
            <mxPoint x="250" y="740" as="targetPoint" />
          </mxGeometry>
        </mxCell>
        <mxCell id="9xWWHG499uekbKJID4pz-76" value="Venceu" style="rounded=0;whiteSpace=wrap;html=1;fontSize=10;" parent="WIyWlLk6GJQsqaUBKTNV-1" vertex="1">
          <mxGeometry x="130" y="730" width="60" height="30" as="geometry" />
        </mxCell>
        <mxCell id="9xWWHG499uekbKJID4pz-77" value="Perdeu" style="rounded=0;whiteSpace=wrap;html=1;fontSize=10;" parent="WIyWlLk6GJQsqaUBKTNV-1" vertex="1">
          <mxGeometry x="250" y="730" width="60" height="30" as="geometry" />
        </mxCell>
        <mxCell id="kTU7rOl9mbQde64WQ3L0-3" value="&lt;font style=&quot;font-size: 10px;&quot;&gt;Perdeu 2 vezes?&lt;/font&gt;" style="rhombus;whiteSpace=wrap;html=1;fillColor=#f5f5f5;fontColor=#333333;strokeColor=#666666;" parent="WIyWlLk6GJQsqaUBKTNV-1" vertex="1">
          <mxGeometry x="250" y="770" width="60" height="60" as="geometry" />
        </mxCell>
        <mxCell id="kTU7rOl9mbQde64WQ3L0-4" value="" style="endArrow=none;html=1;rounded=0;fontSize=10;entryX=0.5;entryY=1;entryDx=0;entryDy=0;exitX=0.5;exitY=0;exitDx=0;exitDy=0;" parent="WIyWlLk6GJQsqaUBKTNV-1" source="kTU7rOl9mbQde64WQ3L0-3" target="9xWWHG499uekbKJID4pz-77" edge="1">
          <mxGeometry width="50" height="50" relative="1" as="geometry">
            <mxPoint x="240" y="810" as="sourcePoint" />
            <mxPoint x="290" y="760" as="targetPoint" />
          </mxGeometry>
        </mxCell>
        <mxCell id="kTU7rOl9mbQde64WQ3L0-5" value="" style="endArrow=classic;html=1;rounded=0;fontSize=10;" parent="WIyWlLk6GJQsqaUBKTNV-1" edge="1">
          <mxGeometry width="50" height="50" relative="1" as="geometry">
            <mxPoint x="310" y="799.86" as="sourcePoint" />
            <mxPoint x="360" y="799.86" as="targetPoint" />
          </mxGeometry>
        </mxCell>
        <mxCell id="kTU7rOl9mbQde64WQ3L0-8" value="sim&lt;br&gt;" style="edgeLabel;html=1;align=center;verticalAlign=middle;resizable=0;points=[];fontSize=10;fontStyle=1" parent="kTU7rOl9mbQde64WQ3L0-5" vertex="1" connectable="0">
          <mxGeometry x="-0.5581" relative="1" as="geometry">
            <mxPoint x="9" y="-10" as="offset" />
          </mxGeometry>
        </mxCell>
        <mxCell id="kTU7rOl9mbQde64WQ3L0-11" value="Perdeu o jogo" style="rounded=0;whiteSpace=wrap;html=1;fontSize=10;fillColor=#f8cecc;strokeColor=#b85450;" parent="WIyWlLk6GJQsqaUBKTNV-1" vertex="1">
          <mxGeometry x="360" y="785" width="60" height="30" as="geometry" />
        </mxCell>
        <mxCell id="kTU7rOl9mbQde64WQ3L0-12" value="Round 3" style="rounded=0;whiteSpace=wrap;html=1;fontSize=10;fillColor=#f5f5f5;fontColor=#333333;strokeColor=#666666;" parent="WIyWlLk6GJQsqaUBKTNV-1" vertex="1">
          <mxGeometry x="180" y="880" width="80" height="30" as="geometry" />
        </mxCell>
        <mxCell id="kTU7rOl9mbQde64WQ3L0-16" value="" style="endArrow=none;html=1;rounded=0;fontSize=10;" parent="WIyWlLk6GJQsqaUBKTNV-1" edge="1">
          <mxGeometry width="50" height="50" relative="1" as="geometry">
            <mxPoint x="160" y="830" as="sourcePoint" />
            <mxPoint x="280" y="830" as="targetPoint" />
          </mxGeometry>
        </mxCell>
        <mxCell id="kTU7rOl9mbQde64WQ3L0-19" value="não&lt;br&gt;" style="edgeLabel;html=1;align=center;verticalAlign=middle;resizable=0;points=[];fontSize=10;fontStyle=1" parent="kTU7rOl9mbQde64WQ3L0-16" vertex="1" connectable="0">
          <mxGeometry x="0.5653" y="2" relative="1" as="geometry">
            <mxPoint x="-4" y="-8" as="offset" />
          </mxGeometry>
        </mxCell>
        <mxCell id="kTU7rOl9mbQde64WQ3L0-17" value="" style="endArrow=none;html=1;rounded=0;fontSize=10;entryX=0.5;entryY=1;entryDx=0;entryDy=0;" parent="WIyWlLk6GJQsqaUBKTNV-1" target="9xWWHG499uekbKJID4pz-76" edge="1">
          <mxGeometry width="50" height="50" relative="1" as="geometry">
            <mxPoint x="160" y="830" as="sourcePoint" />
            <mxPoint x="230" y="870" as="targetPoint" />
          </mxGeometry>
        </mxCell>
        <mxCell id="kTU7rOl9mbQde64WQ3L0-18" value="" style="endArrow=classic;html=1;rounded=0;fontSize=10;entryX=0.5;entryY=0;entryDx=0;entryDy=0;" parent="WIyWlLk6GJQsqaUBKTNV-1" target="kTU7rOl9mbQde64WQ3L0-12" edge="1">
          <mxGeometry width="50" height="50" relative="1" as="geometry">
            <mxPoint x="220" y="830" as="sourcePoint" />
            <mxPoint x="270" y="780" as="targetPoint" />
          </mxGeometry>
        </mxCell>
        <mxCell id="kTU7rOl9mbQde64WQ3L0-20" value="" style="endArrow=none;html=1;rounded=0;fontSize=10;" parent="WIyWlLk6GJQsqaUBKTNV-1" edge="1">
          <mxGeometry width="50" height="50" relative="1" as="geometry">
            <mxPoint x="220" y="940" as="sourcePoint" />
            <mxPoint x="220" y="910" as="targetPoint" />
          </mxGeometry>
        </mxCell>
        <mxCell id="kTU7rOl9mbQde64WQ3L0-21" value="" style="endArrow=none;html=1;rounded=0;fontSize=10;" parent="WIyWlLk6GJQsqaUBKTNV-1" edge="1">
          <mxGeometry width="50" height="50" relative="1" as="geometry">
            <mxPoint x="180" y="940" as="sourcePoint" />
            <mxPoint x="260" y="940" as="targetPoint" />
          </mxGeometry>
        </mxCell>
        <mxCell id="kTU7rOl9mbQde64WQ3L0-22" value="" style="endArrow=classic;html=1;rounded=0;fontSize=10;" parent="WIyWlLk6GJQsqaUBKTNV-1" edge="1">
          <mxGeometry width="50" height="50" relative="1" as="geometry">
            <mxPoint x="180" y="940" as="sourcePoint" />
            <mxPoint x="180" y="970" as="targetPoint" />
          </mxGeometry>
        </mxCell>
        <mxCell id="kTU7rOl9mbQde64WQ3L0-23" value="" style="endArrow=classic;html=1;rounded=0;fontSize=10;" parent="WIyWlLk6GJQsqaUBKTNV-1" edge="1">
          <mxGeometry width="50" height="50" relative="1" as="geometry">
            <mxPoint x="259.66" y="940" as="sourcePoint" />
            <mxPoint x="259.66" y="970" as="targetPoint" />
          </mxGeometry>
        </mxCell>
        <mxCell id="kTU7rOl9mbQde64WQ3L0-24" value="Venceu" style="rounded=0;whiteSpace=wrap;html=1;fontSize=10;fillColor=#dae8fc;strokeColor=#6c8ebf;" parent="WIyWlLk6GJQsqaUBKTNV-1" vertex="1">
          <mxGeometry x="150" y="970" width="60" height="30" as="geometry" />
        </mxCell>
        <mxCell id="kTU7rOl9mbQde64WQ3L0-25" value="Perdeu" style="rounded=0;whiteSpace=wrap;html=1;fontSize=10;fillColor=#f8cecc;strokeColor=#b85450;" parent="WIyWlLk6GJQsqaUBKTNV-1" vertex="1">
          <mxGeometry x="230" y="970" width="60" height="30" as="geometry" />
        </mxCell>
        <mxCell id="kTU7rOl9mbQde64WQ3L0-30" value="" style="edgeStyle=orthogonalEdgeStyle;rounded=0;orthogonalLoop=1;jettySize=auto;html=1;fontSize=10;" parent="WIyWlLk6GJQsqaUBKTNV-1" source="kTU7rOl9mbQde64WQ3L0-26" edge="1">
          <mxGeometry relative="1" as="geometry">
            <mxPoint x="80" y="800" as="targetPoint" />
          </mxGeometry>
        </mxCell>
        <mxCell id="kTU7rOl9mbQde64WQ3L0-26" value="&lt;font style=&quot;font-size: 10px;&quot;&gt;Venceu 2 vezes?&lt;/font&gt;" style="rhombus;whiteSpace=wrap;html=1;fillColor=#f5f5f5;fontColor=#333333;strokeColor=#666666;" parent="WIyWlLk6GJQsqaUBKTNV-1" vertex="1">
          <mxGeometry x="130" y="770" width="60" height="60" as="geometry" />
        </mxCell>
        <mxCell id="kTU7rOl9mbQde64WQ3L0-31" value="Venceu o jogo" style="rounded=0;whiteSpace=wrap;html=1;fontSize=10;fillColor=#dae8fc;strokeColor=#6c8ebf;" parent="WIyWlLk6GJQsqaUBKTNV-1" vertex="1">
          <mxGeometry x="20" y="785" width="60" height="30" as="geometry" />
        </mxCell>
        <mxCell id="kTU7rOl9mbQde64WQ3L0-36" value="" style="endArrow=none;html=1;rounded=0;fontSize=16;" parent="WIyWlLk6GJQsqaUBKTNV-1" edge="1">
          <mxGeometry width="50" height="50" relative="1" as="geometry">
            <mxPoint x="580" y="430" as="sourcePoint" />
            <mxPoint x="580" y="400" as="targetPoint" />
          </mxGeometry>
        </mxCell>
        <mxCell id="kTU7rOl9mbQde64WQ3L0-37" value="Casos específicos de cada round" style="swimlane;fontStyle=0;childLayout=stackLayout;horizontal=1;startSize=30;horizontalStack=0;resizeParent=1;resizeParentMax=0;resizeLast=0;collapsible=1;marginBottom=0;fontSize=16;fillColor=#dae8fc;strokeColor=#6c8ebf;" parent="WIyWlLk6GJQsqaUBKTNV-1" vertex="1">
          <mxGeometry x="440" y="410" width="280" height="120" as="geometry">
            <mxRectangle x="510" y="420" width="70" height="30" as="alternateBounds" />
          </mxGeometry>
        </mxCell>
        <mxCell id="kTU7rOl9mbQde64WQ3L0-38" value="Empate Round 1 :  Quem ganhar o round 2 ganha o jogo " style="text;strokeColor=none;fillColor=default;align=left;verticalAlign=middle;spacingLeft=4;spacingRight=4;overflow=hidden;points=[[0,0.5],[1,0.5]];portConstraint=eastwest;rotatable=0;fontSize=10;" parent="kTU7rOl9mbQde64WQ3L0-37" vertex="1">
          <mxGeometry y="30" width="280" height="30" as="geometry" />
        </mxCell>
        <mxCell id="kTU7rOl9mbQde64WQ3L0-39" value="Empate Round 2 :  Quem ganhar o round 1 ganha o jogo " style="text;strokeColor=none;fillColor=default;align=left;verticalAlign=middle;spacingLeft=4;spacingRight=4;overflow=hidden;points=[[0,0.5],[1,0.5]];portConstraint=eastwest;rotatable=0;fontSize=10;" parent="kTU7rOl9mbQde64WQ3L0-37" vertex="1">
          <mxGeometry y="60" width="280" height="30" as="geometry" />
        </mxCell>
        <mxCell id="kTU7rOl9mbQde64WQ3L0-40" value="Empate Round 3 :  Quem ganhar o round 1 ganha o jogo " style="text;align=left;verticalAlign=middle;spacingLeft=4;spacingRight=4;overflow=hidden;points=[[0,0.5],[1,0.5]];portConstraint=eastwest;rotatable=0;fontSize=10;fillColor=default;" parent="kTU7rOl9mbQde64WQ3L0-37" vertex="1">
          <mxGeometry y="90" width="280" height="30" as="geometry" />
        </mxCell>
        <mxCell id="ndz0HKxbCvsNHnvAFVHq-0" value="&lt;span style=&quot;font-size: 16px;&quot;&gt;Em caso de empates&lt;/span&gt;" style="rounded=1;whiteSpace=wrap;html=1;fillColor=default;" vertex="1" parent="WIyWlLk6GJQsqaUBKTNV-1">
          <mxGeometry x="520" y="340" width="120" height="60" as="geometry" />
        </mxCell>
      </root>
    </mxGraphModel>
  </diagram>
</mxfile>
